<svg width="45" height="36" viewBox="0 0 45 36" fill="none" xmlns="http://www.w3.org/2000/svg">
<path fill-rule="evenodd" clip-rule="evenodd" d="M43.586 14.9104V34.6293H39.8405V31.5837H18.7572V34.6293H15.0118V14.9104H13.7227V11.8781H16.8737L18.6319 5.1523C19.1511 3.17336 20.014 1.37071 21.7041 1.37071H37.5524C39.2425 1.37071 40.2165 3.13369 40.6247 5.1523L41.9818 11.8781H44.8786V14.9104H43.586ZM2.1999 25.8364C1.19014 27.476 0.388052 29.3139 1.22236 32.0113C1.76305 33.761 3.00915 35.1978 4.58109 35.9956C2.0137 29.023 9.38284 26.524 9.60485 34.7835C12.072 32.2625 12.0505 28.547 10.2422 25.5411C9.39001 24.1219 8.96032 23.3242 8.77412 22.5044C8.6667 22.0593 8.64521 21.6097 8.64521 21.0411C8.63805 19.1239 8.81709 17.2375 8.8529 15.2057C8.91377 11.3712 13.7012 9.43634 12.0147 3.98433C11.474 2.23457 10.2279 0.802155 8.65596 0C11.2233 6.97258 3.8542 9.4716 3.63219 1.21205C1.16507 3.7331 1.18655 7.44858 2.99482 10.4545C3.78974 11.7723 4.72432 12.6009 4.66702 15.1969C4.60615 16.9995 4.50947 18.8595 4.41279 20.6665C4.37698 21.3849 4.31969 21.8609 4.17646 22.3149C3.92223 23.1347 3.40661 23.8751 2.20348 25.8144L2.1999 25.8364ZM24.1892 25.4971H34.2474V28.7057H24.1892V25.4971ZM16.265 18.022C19.083 18.1322 20.809 19.5867 21.2494 22.6146H16.265V18.022ZM41.9746 18.022C39.1566 18.1322 37.4307 19.5867 36.9903 22.6146H41.9746V18.022ZM18.2165 11.8781H40.3776L39.3858 6.24094C39.1136 4.69393 38.333 3.35847 37.044 3.35847H22.0264C20.7409 3.35847 20.0785 4.72919 19.6846 6.24094L18.2165 11.8781Z" fill="#FFB700"/>
</svg>
