<svg width="37" height="36" viewBox="0 0 37 36" fill="none" xmlns="http://www.w3.org/2000/svg">
<path fill-rule="evenodd" clip-rule="evenodd" d="M0.625 25.8489C0.800781 24.5401 1.29297 23.7377 2.26855 23.687C2.16145 22.4822 2.35827 21.2642 2.82812 20.2241C3.0459 19.7789 3.31707 19.3842 3.63086 19.0556C4.76172 17.8324 6.04199 17.7 7.43945 17.365C8.79004 17.0378 10.1436 16.7612 11.4971 16.547C13.1318 16.2899 14.7666 16.1224 16.4014 16.0601C17.1602 16.0289 16.9873 16.0835 17.5732 15.468L17.5938 15.4485L10.3691 6.17393C9.44043 4.88849 8.70508 4.77163 7.46582 4.78721H6.80664C6.50622 4.67164 6.22966 4.46625 5.99811 4.18674C5.76656 3.90724 5.58616 3.56102 5.4707 3.17457L5.2832 2.33709C5.15137 1.7567 5.09863 1.5113 5.41211 0.965962C5.89844 0.101214 6.85938 0.0622617 7.6123 -6.24349e-05C9.13574 -0.105234 10.3662 0.424521 11.5264 2.4111L19.4512 13.6334C21.8744 11.4216 24.4253 9.46789 27.0801 7.79046C28.252 7.01141 29.7461 6.62188 31.5068 6.57514H36.625V32.7201H17.8193C19.1465 24.6024 15.2002 21.2992 11.5762 21.7705C6.91211 22.3782 5.68457 27.3525 6.48438 32.8175H2.44727C1.2959 32.8798 0.759766 31.6567 0.625 29.6039V25.8489ZM12.7363 26.8967V29.117H14.3945C14.2958 28.5797 14.0882 28.0887 13.7943 27.6973C13.5004 27.3058 13.1315 27.029 12.7275 26.8967H12.7363ZM14.3945 30.5622H12.7363V32.7825C13.1383 32.6475 13.5051 32.3696 13.7973 31.9784C14.0894 31.5872 14.2959 31.0976 14.3945 30.5622ZM11.6406 32.7825V30.5622H9.9707C10.0706 31.0993 10.2789 31.5901 10.5732 31.9814C10.8675 32.3726 11.2366 32.6496 11.6406 32.7825ZM9.9707 29.117H11.6406V26.8967C11.2365 27.0291 10.8672 27.306 10.5729 27.6973C10.2785 28.0887 10.0703 28.5796 9.9707 29.117ZM12.1826 23.6636C13.0993 23.6613 13.9959 24.0205 14.759 24.6957C15.5222 25.3709 16.1176 26.3318 16.47 27.4569C16.8224 28.5821 16.9159 29.8209 16.7388 31.0167C16.5617 32.2125 16.1218 33.3116 15.4749 34.1751C14.8279 35.0385 14.0029 35.6275 13.1042 35.8675C12.2055 36.1076 11.2734 35.9879 10.4259 35.5236C9.57832 35.0594 8.85334 34.2713 8.34262 33.2592C7.8319 32.2472 7.55838 31.0564 7.55664 29.8376C7.55664 28.2033 8.04495 26.6359 8.91413 25.4802C9.78332 24.3246 10.9622 23.6753 12.1914 23.6753L12.1826 23.6636ZM20.6113 14.8019V17.4546H33.5312L34.4746 8.22283H30.9326C28.7295 8.56562 28.3721 8.663 26.3682 10.077C24.7188 11.2456 23.2158 12.5193 21.6104 13.9138C21.2764 14.2021 20.9424 14.502 20.6113 14.8019Z" fill="#FFB700"/>
</svg>
