<svg width="33" height="36" viewBox="0 0 33 36" fill="none" xmlns="http://www.w3.org/2000/svg">
<path fill-rule="evenodd" clip-rule="evenodd" d="M16.6085 36C1.85077 29.5603 0.375 18.8273 0.375 6.70811C0.375 -2.2807 32.8868 -2.19126 32.8868 6.70811C32.8868 18.8273 31.411 29.5603 16.6085 36ZM8.2458 14.2659H14.3278V8.13916H18.934V14.2659H25.016V18.8273H18.934V24.9093H14.3278V18.8273H8.2458V14.2659ZM16.6085 33.0932C28.4147 27.5478 30.2483 19.051 30.2483 6.70811C30.2483 6.61867 30.2483 6.57395 30.2035 6.48451C29.8458 5.27705 27.2967 4.2932 26.2681 3.98016C23.2719 2.99631 19.7837 2.63855 16.6085 2.63855C13.4781 2.63855 10.0346 2.99631 6.99363 3.93544C5.92034 4.2932 3.41599 5.27705 3.05823 6.43979C3.01351 6.52923 3.01351 6.61867 3.01351 6.70811C3.01351 19.051 4.80232 27.5478 16.6085 33.0932ZM16.6085 34.3453C29.2644 28.5764 31.3663 19.7218 31.3663 6.70811C31.3663 6.52923 31.3663 6.35034 31.2768 6.17146C30.7849 4.47209 28.1017 3.35408 26.6259 2.86215C23.4955 1.8783 19.8731 1.52054 16.6085 1.52054C13.3886 1.52054 9.76629 1.8783 6.63586 2.86215C5.16009 3.35408 2.47686 4.42737 1.94022 6.12674C1.8955 6.30562 1.85077 6.52923 1.85077 6.70811C1.85077 19.7218 3.95264 28.5764 16.6085 34.3453Z" fill="#FFB700"/>
</svg>
