<svg width="37" height="36" viewBox="0 0 37 36" fill="none" xmlns="http://www.w3.org/2000/svg">
<g clip-path="url(#clip0_707_10753)">
<path d="M35.9772 26.9518L33.8116 23.2258C35.6022 18.5457 35.4773 18.8797 35.4992 18.7976C35.5849 18.5676 35.5923 18.3117 35.5124 18.0722L35.5153 18.0731L35.4998 18.0321L33.2001 11.9227C32.9525 11.265 32.2187 10.9326 31.5611 11.1802L29.4376 11.9795C28.9206 12.1741 28.6062 12.6693 28.6149 13.1915L30.7626 12.0611L28.2095 14.3907C27.0875 14.1107 26.5963 13.9881 25.4836 13.7103C25.4679 13.4859 25.3713 13.2668 25.1939 13.1012C24.8217 12.754 24.2385 12.7741 23.8911 13.1464C23.4871 13.5795 20.801 16.4587 20.3975 16.8912L17.088 10.9813C16.8135 10.491 16.2939 10.1865 15.7321 10.1865H4.64757C3.92363 10.1865 3.28534 10.6997 3.1298 11.4067L1.50777 18.5967V22.2403C0.714992 22.4276 0.125 23.1391 0.125 23.989C0.125 24.9817 0.929726 25.7865 1.92247 25.7865H3.25102C3.25102 23.622 5.012 21.861 7.1765 21.861C9.341 21.861 11.102 23.622 11.102 25.7865H18.5523C18.5523 23.622 20.3133 21.861 22.4778 21.861C24.6423 21.861 26.4032 23.622 26.4032 25.7865C26.4983 25.7865 27.0258 25.7865 27.0865 25.7865C28.0793 25.7865 28.884 24.9817 28.884 23.989C28.884 23.2064 28.3837 22.541 27.6857 22.2943V21.432C27.6857 19.8661 26.4162 18.5967 24.8503 18.5967H21.3526L21.3432 18.58C21.6807 18.2182 24.4344 15.2665 24.4344 15.2665C24.4344 15.2665 24.5252 15.3444 28.2421 16.2721C28.2425 16.2722 28.2428 16.2722 28.2432 16.2723C28.5396 16.346 28.8545 16.2626 29.0748 16.0616L31.894 13.489L29.7983 16.5492L30.8926 19.4564L29.5742 20.3176C29.2438 20.5334 29.0558 20.9109 29.0826 21.3045L29.5071 27.5484C29.5478 28.147 30.0655 28.6031 30.6692 28.5624C31.27 28.5216 31.724 28.0013 31.6832 27.4004L31.302 21.7941L32.2646 21.1653L31.5882 22.9333C31.4705 23.2412 31.4982 23.586 31.664 23.871L34.0914 28.0478C34.3945 28.5693 35.0624 28.7449 35.5822 28.4427C36.103 28.14 36.2798 27.4725 35.9772 26.9518ZM8.61221 17.112H3.64738L4.79009 11.9179H8.61221V17.112ZM13.7789 20.1196H11.9236C11.575 20.1196 11.2922 19.8369 11.2922 19.4882C11.2922 19.1396 11.5749 18.8568 11.9236 18.8568H13.7789C14.1276 18.8568 14.4103 19.1396 14.4103 19.4882C14.4103 19.8369 14.1276 20.1196 13.7789 20.1196ZM10.4558 17.112V11.9179H15.6282L18.537 17.112H10.4558Z" fill="#FFB700"/>
<path d="M29.6283 11.1761C30.6685 11.1761 31.5118 10.3328 31.5118 9.29264C31.5118 8.25243 30.6685 7.40918 29.6283 7.40918C28.5881 7.40918 27.7449 8.25243 27.7449 9.29264C27.7449 10.3328 28.5881 11.1761 29.6283 11.1761Z" fill="#FFB700"/>
<path d="M7.17651 23.0449C5.66233 23.0449 4.43481 24.2724 4.43481 25.7866C4.43481 27.3007 5.66226 28.5282 7.17651 28.5282C8.69069 28.5282 9.91821 27.3007 9.91821 25.7866C9.91813 24.2724 8.69069 23.0449 7.17651 23.0449ZM7.17651 26.8971C6.56317 26.8971 6.06599 26.3999 6.06599 25.7865C6.06599 25.1732 6.56317 24.676 7.17651 24.676C7.78985 24.676 8.28703 25.1732 8.28703 25.7865C8.28703 26.3999 7.78985 26.8971 7.17651 26.8971Z" fill="#FFB700"/>
<path d="M22.4778 23.0449C20.9636 23.0449 19.7361 24.2724 19.7361 25.7866C19.7361 27.3007 20.9635 28.5282 22.4778 28.5282C23.992 28.5282 25.2195 27.3007 25.2195 25.7866C25.2194 24.2724 23.9919 23.0449 22.4778 23.0449ZM22.4778 26.8971C21.8644 26.8971 21.3673 26.3999 21.3673 25.7865C21.3673 25.1732 21.8644 24.676 22.4778 24.676C23.0911 24.676 23.5883 25.1732 23.5883 25.7865C23.5883 26.3999 23.0911 26.8971 22.4778 26.8971Z" fill="#FFB700"/>
</g>
<defs>
<clipPath id="clip0_707_10753">
<rect width="36" height="36" fill="white" transform="translate(0.125)"/>
</clipPath>
</defs>
</svg>
