<svg width="37" height="36" viewBox="0 0 37 36" fill="none" xmlns="http://www.w3.org/2000/svg">
<g clip-path="url(#clip0_707_10799)">
<path d="M17.8717 14.5617C17.8717 14.3907 17.8717 14.2148 17.8717 14.0383H17.071C16.6763 14.0383 16.3564 13.7183 16.3564 13.3237C16.3564 12.929 16.6763 12.6091 17.071 12.6091H17.7613C17.5015 11.8869 16.8107 11.3703 15.9991 11.3703H13.4664L11.3608 7.61053C11.1922 7.30931 10.873 7.12207 10.5278 7.12207H3.71791C3.27326 7.12207 2.88098 7.43728 2.78543 7.87174L1.78882 12.289C1.78882 12.4188 1.78882 14.5283 1.78882 14.5283C1.30212 14.6435 0.939453 15.0798 0.939453 15.6018C0.939453 16.2116 1.43382 16.7061 2.04378 16.7061H2.64931C2.64931 15.2601 3.8257 14.0838 5.2716 14.0838C6.71757 14.0838 7.89389 15.2602 7.89389 16.7061H12.0498C12.0498 15.2601 13.2261 14.0838 14.6721 14.0838C16.118 14.0838 17.2944 15.2602 17.2944 16.7061H17.5035C18.1134 16.7061 18.6079 16.2118 18.6079 15.6018C18.6078 15.1212 18.3002 14.7135 17.8717 14.5617ZM6.1536 11.3769H3.10345L3.80552 8.18589H6.1536V11.3769ZM9.32777 13.3058H8.18801C7.92905 13.3058 7.71903 13.0958 7.71903 12.8368C7.71903 12.5779 7.92905 12.3679 8.18801 12.3679H9.32784C9.5868 12.3679 9.79682 12.5779 9.79682 12.8368C9.79682 13.0958 9.5868 13.3058 9.32777 13.3058ZM7.28626 11.3769V8.18589H10.4639L12.2473 11.3769H7.28626Z" fill="#FFB700"/>
<path d="M28.8896 9.03149C28.6177 8.54613 28.103 8.24463 27.5467 8.24463H22.8994C22.4259 8.24463 22.042 8.62846 22.042 9.10202C22.042 16.5818 22.0442 16.9006 22.0442 16.9258C22.7296 16.7874 23.4032 17.0961 23.7587 17.6579L24.5964 17.5219L26.1856 15.6372C26.3547 15.4366 26.5414 15.2557 26.7412 15.0931H23.7567V9.95947H27.4438L28.7533 12.2978C28.8204 11.5579 29.1541 10.8941 29.6576 10.4033L28.8896 9.03149Z" fill="#FFB700"/>
<path d="M22.5509 22.2775C21.3589 22.4703 20.2416 21.6707 20.0469 20.4721C19.9251 19.7215 20.2033 18.9969 20.7242 18.5162C20.7305 18.0907 20.9022 17.6768 21.2095 17.3712V7.46408C21.2095 7.23536 21.1182 7.01613 20.9556 6.85511L14.3588 0.317268C13.812 -0.224487 12.8955 0.179105 12.8955 0.926242V4.09184C12.8955 4.3508 13.1055 4.56082 13.3645 4.56082C13.683 4.56082 13.9421 4.81992 13.9421 5.13844C13.9421 5.45695 13.683 5.71605 13.3645 5.71605C13.046 5.71605 12.7869 5.45695 12.7869 5.13844C12.7869 4.87948 12.5769 4.66945 12.318 4.66945C12.059 4.66945 11.849 4.87948 11.849 5.13844C11.849 5.9741 12.5288 6.65402 13.3645 6.65402C14.2002 6.65402 14.8801 5.97417 14.8801 5.13844C14.8801 4.46639 14.4403 3.89511 13.8335 3.69718V2.21078L19.4948 7.82148V18.3715C19.0961 18.3715 15.4286 18.3715 14.913 18.3715C15.7287 18.2543 16.3564 17.5545 16.3564 16.7063C16.3564 15.7761 15.6023 15.022 14.6721 15.022C13.7419 15.022 12.9878 15.7761 12.9878 16.7063C12.9878 17.5546 13.6154 18.2543 14.4312 18.3715C13.5512 18.3715 6.33756 18.3715 5.51251 18.3715C6.32828 18.2543 6.95595 17.5545 6.95595 16.7063C6.95595 15.7761 6.20185 15.022 5.27162 15.022C4.34139 15.022 3.58729 15.7761 3.58729 16.7063C3.58729 17.5546 4.21497 18.2543 5.03073 18.3715C3.76272 18.3715 2.84093 18.3715 1.67079 18.3715C1.23127 18.3715 0.875 18.7278 0.875 19.1672V21.8057C0.875 22.2452 1.23127 22.6014 1.67072 22.6014H4.69766C5.18191 20.77 6.85259 19.4157 8.83413 19.4157C10.8157 19.4157 12.4863 20.77 12.9706 22.6014H25.2447C25.3195 22.3186 25.4229 22.0475 25.5511 21.7906L22.5509 22.2775ZM4.58938 16.7063C4.58938 16.3295 4.89482 16.024 5.27169 16.024C5.6485 16.024 5.954 16.3294 5.954 16.7063C5.954 17.0831 5.64857 17.3886 5.27169 17.3886C4.89482 17.3886 4.58938 17.0831 4.58938 16.7063ZM13.9898 16.7063C13.9898 16.3295 14.2952 16.024 14.6721 16.024C15.049 16.024 15.3544 16.3294 15.3544 16.7063C15.3544 17.0831 15.049 17.3886 14.6721 17.3886C14.2953 17.3885 13.9898 17.0831 13.9898 16.7063Z" fill="#FFB700"/>
<path d="M8.83432 20.979C7.33477 20.979 6.11914 22.1946 6.11914 23.6943C6.11914 25.1938 7.33477 26.4094 8.83432 26.4094C10.3339 26.4094 11.5495 25.1938 11.5495 23.6943C11.5495 22.1946 10.3339 20.979 8.83432 20.979ZM8.83432 24.794C8.22689 24.794 7.73449 24.3016 7.73449 23.6942C7.73449 23.0868 8.22689 22.5944 8.83432 22.5944C9.44174 22.5944 9.93414 23.0868 9.93414 23.6942C9.93407 24.3016 9.44174 24.794 8.83432 24.794Z" fill="#FFB700"/>
<path d="M26.666 23.6944C26.666 24.6527 27.1629 25.4943 27.9126 25.9776V25.0236V21.4111C27.1629 21.8945 26.666 22.7362 26.666 23.6944Z" fill="#FFB700"/>
<path d="M36.875 17.7166C36.8685 16.4041 35.8043 15.3364 34.4919 15.3364C33.9054 15.3364 29.8252 15.3364 29.3549 15.3364C28.4766 15.3364 27.6482 15.7215 27.082 16.3929L25.2129 18.6095L23.1292 18.9477L22.7843 18.3124C22.6597 18.0829 22.3726 17.998 22.1433 18.1225C21.9138 18.2471 21.8289 18.5341 21.9534 18.7635L22.1405 19.1081L22.0399 19.1244C21.4889 19.2139 21.1147 19.7332 21.2041 20.2842C21.2933 20.8331 21.8101 21.2095 22.3639 21.12L25.9062 20.5451C26.1446 20.5064 26.3612 20.3836 26.517 20.1989C26.517 20.1989 28.2561 18.2002 28.8777 17.5792C28.9125 17.5445 28.9646 17.5342 29.01 17.553C29.0554 17.5719 29.0849 17.6161 29.0849 17.6652L29.0854 34.719C29.0854 35.3888 29.6285 35.932 30.2984 35.932C30.9684 35.932 31.5115 35.3889 31.5115 34.719V25.0235H32.0352V34.7191C32.0352 35.389 32.5783 35.9321 33.2483 35.9321C33.9182 35.9321 34.4613 35.3891 34.4613 34.7191L34.4397 17.7294C34.4396 17.6145 34.5312 17.5205 34.646 17.5178C34.7608 17.515 34.851 17.6044 34.8563 17.7192V25.1455C34.855 25.7038 35.2945 26.1574 35.8527 26.1588C35.8535 26.1588 35.8543 26.1588 35.8552 26.1588C36.4123 26.1588 36.8736 25.7078 36.875 25.1504L36.875 17.7166Z" fill="#FFB700"/>
<path d="M31.7732 14.6684C32.9302 14.6684 33.8681 13.7305 33.8681 12.5735C33.8681 11.4165 32.9302 10.4785 31.7732 10.4785C30.6162 10.4785 29.6782 11.4165 29.6782 12.5735C29.6782 13.7305 30.6162 14.6684 31.7732 14.6684Z" fill="#FFB700"/>
</g>
<defs>
<clipPath id="clip0_707_10799">
<rect width="36" height="36" fill="white" transform="translate(0.875)"/>
</clipPath>
</defs>
</svg>
