<svg width="36" height="36" viewBox="0 0 36 36" fill="none" xmlns="http://www.w3.org/2000/svg">
<path d="M1.925 34.2753H5.075C5.075 34.0503 5 33.8253 5 33.6003C5 31.2753 6.875 29.4753 9.125 29.4753C11.45 29.4753 13.325 31.4253 13.25 33.7503C13.25 33.9003 13.25 34.1253 13.175 34.2753H23.675C23.675 34.0503 23.6 33.8253 23.6 33.6003C23.6 31.0503 26 28.9503 28.625 29.5503C30.35 29.9253 31.625 31.3503 31.85 33.0753C31.925 33.4503 31.925 33.8253 31.85 34.2753H34.775C35.525 34.2753 36.125 33.6003 35.975 32.8503C35.3 28.0503 31.1 24.3003 26.15 24.3003H25.775L19.7 17.2503C19.475 16.9503 19.1 16.8003 18.725 16.8003H6.35C5.75 16.8003 5.225 17.1753 5.075 17.7753L3.425 24.3003H3.275C1.925 24.3003 0.875 25.3503 0.875 26.7003V33.2253C0.875 33.7503 1.325 34.2753 1.925 34.2753ZM22.325 24.3003H13.7V19.4253H18.125L22.325 24.3003ZM7.325 19.3503H11.075V24.2253H6.125L7.325 19.3503Z" fill="#FFB700"/>
<path d="M9.12412 35.9992C10.4496 35.9992 11.5241 34.9247 11.5241 33.5992C11.5241 32.2737 10.4496 31.1992 9.12412 31.1992C7.79864 31.1992 6.72412 32.2737 6.72412 33.5992C6.72412 34.9247 7.79864 35.9992 9.12412 35.9992Z" fill="#FFB700"/>
<path d="M27.724 35.9992C29.0495 35.9992 30.124 34.9247 30.124 33.5992C30.124 32.2737 29.0495 31.1992 27.724 31.1992C26.3985 31.1992 25.324 32.2737 25.324 33.5992C25.324 34.9247 26.3985 35.9992 27.724 35.9992Z" fill="#FFB700"/>
<path d="M28.9246 4.575H19.1746V0H17.0746V4.575H7.32456C5.97456 4.575 4.92456 5.625 4.92456 6.975H31.3246C31.3246 5.625 30.1996 4.575 28.9246 4.575Z" fill="#FFB700"/>
<path d="M28.7001 11.6259C29.4501 11.6259 30.1251 11.0259 30.1251 10.2009C30.1251 9.45088 28.7001 7.65088 28.7001 7.65088C28.7001 7.65088 27.2751 9.45088 27.2751 10.2009C27.2751 10.9509 27.8751 11.6259 28.7001 11.6259Z" fill="#FFB700"/>
<path d="M24.2001 14.6254C24.9501 14.6254 25.6251 14.0254 25.6251 13.2004C25.6251 12.4504 24.2001 10.6504 24.2001 10.6504C24.2001 10.6504 22.7751 12.4504 22.7751 13.2004C22.7751 13.9504 23.3751 14.6254 24.2001 14.6254Z" fill="#FFB700"/>
<path d="M19.6254 11.6259C20.3754 11.6259 21.0504 11.0259 21.0504 10.2009C21.0504 9.45088 19.6254 7.65088 19.6254 7.65088C19.6254 7.65088 18.2004 9.45088 18.2004 10.2009C18.2004 10.9509 18.8754 11.6259 19.6254 11.6259Z" fill="#FFB700"/>
<path d="M15.1254 14.6254C15.8754 14.6254 16.5504 14.0254 16.5504 13.2004C16.5504 12.4504 15.1254 10.6504 15.1254 10.6504C15.1254 10.6504 13.7004 12.4504 13.7004 13.2004C13.7004 13.9504 14.3004 14.6254 15.1254 14.6254Z" fill="#FFB700"/>
<path d="M10.5507 11.6259C11.3007 11.6259 11.9757 11.0259 11.9757 10.2009C11.9757 9.45088 10.5507 7.65088 10.5507 7.65088C10.5507 7.65088 9.12573 9.45088 9.12573 10.2009C9.20073 10.9509 9.80073 11.6259 10.5507 11.6259Z" fill="#FFB700"/>
<path d="M6.05073 14.6254C6.80073 14.6254 7.47573 14.0254 7.47573 13.2004C7.47573 12.4504 6.05073 10.6504 6.05073 10.6504C6.05073 10.6504 4.62573 12.4504 4.62573 13.2004C4.62573 13.9504 5.30073 14.6254 6.05073 14.6254Z" fill="#FFB700"/>
</svg>
