<svg width="37" height="36" viewBox="0 0 37 36" fill="none" xmlns="http://www.w3.org/2000/svg">
<g clip-path="url(#clip0_707_10856)">
<path d="M11.3892 21.3481C8.58726 21.3481 6.30762 23.6278 6.30762 26.4297C6.30762 29.2317 8.58726 31.5113 11.3892 31.5113C14.1911 31.5113 16.4708 29.2317 16.4708 26.4297C16.4707 23.6278 14.1911 21.3481 11.3892 21.3481ZM13.2024 23.3229C13.5464 22.9789 14.104 22.9789 14.4479 23.3229C14.7919 23.6669 14.7919 24.2245 14.4479 24.5685C14.2986 24.7177 13.8607 24.9209 13.4128 25.1033C13.2188 24.8083 12.9622 24.558 12.662 24.3716C12.8458 23.9192 13.0516 23.4738 13.2024 23.3229ZM11.3892 22.0559C11.8756 22.0559 12.27 22.4502 12.27 22.9367C12.27 23.1508 12.0993 23.614 11.9083 24.0654C11.7409 24.0287 11.5674 24.0088 11.3892 24.0088C11.211 24.0088 11.0375 24.0288 10.8701 24.0654C10.6791 23.6139 10.5084 23.1507 10.5084 22.9367C10.5084 22.4502 10.9027 22.0559 11.3892 22.0559ZM8.33027 23.3229C8.67424 22.9789 9.2319 22.9789 9.57581 23.3229C9.72656 23.4738 9.93244 23.919 10.1162 24.3717C9.81593 24.5581 9.55942 24.8084 9.36543 25.1033C8.91753 24.9211 8.47961 24.7178 8.33027 24.5685C7.98636 24.2245 7.98636 23.6669 8.33027 23.3229ZM7.06328 26.3818C7.06328 25.8953 7.4576 25.501 7.94403 25.501C8.15279 25.501 8.59851 25.6633 9.03924 25.8486C8.99319 26.0349 8.96822 26.2294 8.96822 26.4298C8.96822 26.599 8.9858 26.764 9.01899 26.9235C8.58487 27.1051 8.14963 27.2625 7.94403 27.2625C7.45767 27.2625 7.06328 26.8682 7.06328 26.3818ZM9.57588 29.4406C9.2319 29.7846 8.67424 29.7846 8.33034 29.4406C7.98636 29.0967 7.98636 28.539 8.33034 28.1951C8.4742 28.0512 8.88631 27.8572 9.31698 27.6802C9.50936 27.9979 9.77304 28.2675 10.0852 28.4679C9.90959 28.8935 9.71826 29.2983 9.57588 29.4406ZM11.3892 30.7077C10.9027 30.7077 10.5084 30.3134 10.5084 29.8269C10.5084 29.6266 10.6578 29.2085 10.8335 28.7856C11.0121 28.8277 11.198 28.8506 11.3892 28.8506C11.5805 28.8506 11.7664 28.8276 11.945 28.7856C12.1206 29.2083 12.27 29.6266 12.27 29.8269C12.2699 30.3133 11.8756 30.7077 11.3892 30.7077ZM11.3892 27.8017C10.6315 27.8017 10.0173 27.1875 10.0173 26.4297C10.0173 25.672 10.6315 25.0578 11.3892 25.0578C12.1469 25.0578 12.7612 25.672 12.7612 26.4297C12.761 27.1874 12.1468 27.8017 11.3892 27.8017ZM14.4481 29.4406C14.1041 29.7846 13.5464 29.7846 13.2025 29.4406C13.0602 29.2983 12.8688 28.8935 12.6933 28.4678C13.0054 28.2675 13.2691 27.9979 13.4615 27.6801C13.8921 27.8572 14.3042 28.0512 14.4481 28.195C14.792 28.539 14.792 29.0967 14.4481 29.4406ZM14.8343 27.2625C14.6287 27.2625 14.1934 27.1051 13.7593 26.9235C13.7925 26.764 13.81 26.5989 13.81 26.4298C13.81 26.2295 13.7851 26.0349 13.739 25.8486C14.1797 25.6634 14.6254 25.501 14.8342 25.501C15.3207 25.5011 15.715 25.8953 15.715 26.3818C15.715 26.8682 15.3207 27.2625 14.8343 27.2625Z" fill="#FFB700"/>
<path d="M35.3182 33.388L32.8267 26.2826L32.8134 21.5059L28.9128 26.023L28.9145 26.6269C28.9151 26.8476 28.9531 27.0666 29.0267 27.2746L31.6298 34.6944C31.9906 35.7134 33.109 36.2462 34.1272 35.8856C35.1458 35.5248 35.6791 34.4066 35.3182 33.388Z" fill="#FFB700"/>
<path d="M21.3729 6.75801C23.2391 6.75801 24.7519 5.24518 24.7519 3.379C24.7519 1.51283 23.2391 0 21.3729 0C19.5067 0 17.9939 1.51283 17.9939 3.379C17.9939 5.24518 19.5067 6.75801 21.3729 6.75801Z" fill="#FFB700"/>
<path d="M33.3344 14.2696L28.5941 6.72353C27.9235 5.65596 26.5144 5.33427 25.4469 6.00478L21.9998 8.17017C20.9322 8.84082 20.6105 10.2498 21.2811 11.3173L21.6437 11.8947L23.4737 8.78717L21.7778 14.7518L16.4058 16.4695C15.5492 16.7435 15.0766 17.6658 15.3495 18.5191C15.6201 19.3653 16.5321 19.8529 17.3991 19.5754L23.7271 17.5492C24.2483 17.3826 24.6497 16.9662 24.7988 16.4422L26.5571 9.92148C26.5382 10.5613 26.383 15.8202 26.3633 16.4883C26.3474 17.0273 25.957 17.7847 25.5803 18.1613L25.9235 18.7075L25.9235 18.7074L26.5469 19.7L27.8835 18.8326L23.456 23.9601C23.2508 24.1979 23.1056 24.4816 23.0332 24.7874L20.8359 33.5899C20.5866 34.6413 21.2368 35.6957 22.2882 35.9451C23.3379 36.194 24.3935 35.546 24.6434 34.4928L26.7302 26.1557L33.0094 18.7741C34.0895 17.5045 34.221 15.681 33.3344 14.2696Z" fill="#FFB700"/>
<path d="M20.8844 24.6535V24.6534C20.7664 24.4149 20.5213 24.2504 20.2372 24.2504H19.5229L20.1416 23.8932C20.4871 23.6938 20.6055 23.252 20.406 22.9064L19.1149 20.67L17.8763 21.0666C15.577 21.8022 13.5292 20.1045 13.5292 18.0241C13.5292 17.8601 13.5421 17.6986 13.5667 17.5404C13.5452 17.1609 13.2315 16.8594 12.8465 16.8594H9.93244C9.53347 16.8594 9.2101 17.1827 9.2101 17.5817V18.296L8.85291 17.6773C8.65343 17.3318 8.21164 17.2135 7.86612 17.4129L5.34235 18.8701C4.99682 19.0696 4.87849 19.5113 5.0779 19.8569L5.43509 20.4755L4.8164 20.1184C4.47088 19.9189 4.02916 20.0373 3.82961 20.3828L2.37257 22.9064C2.17316 23.252 2.2915 23.6937 2.63702 23.8932L3.25571 24.2504H2.54118C2.14222 24.2504 1.81885 24.5738 1.81885 24.9728V27.8868C1.81885 28.2857 2.14222 28.6091 2.54118 28.6091H3.2555L2.63681 28.9663C2.29129 29.1657 2.17295 29.6076 2.37236 29.9531L3.8294 32.4767C4.02881 32.8222 4.47067 32.9406 4.81619 32.7412L5.43488 32.384L5.07768 33.0027C4.8782 33.3482 4.99661 33.7899 5.34214 33.9895L7.86577 35.4465C8.21129 35.6459 8.65301 35.5276 8.85256 35.182L9.20975 34.5634V35.2777C9.20975 35.6766 9.53312 36 9.93209 36H12.8461C13.2451 36 13.5684 35.6766 13.5684 35.2777V34.5634L13.9256 35.182C14.125 35.5276 14.5669 35.6459 14.9124 35.4465L17.4361 33.9895C17.7816 33.79 17.8999 33.3482 17.7005 33.0027L17.3433 32.384L17.962 32.7412C18.3075 32.9407 18.7492 32.8222 18.9488 32.4767L19.1592 32.1122L20.4058 29.9531C20.6053 29.6076 20.4869 29.1658 20.1414 28.9663L19.5227 28.6091H20.237C20.636 28.6091 20.9593 28.2857 20.9593 27.8867C20.9595 24.6739 20.9903 24.8678 20.8844 24.6535ZM11.3892 32.8342C7.85775 32.8342 4.98473 29.9611 4.98473 26.4297C4.98473 22.8984 7.85782 20.0253 11.3892 20.0253C14.9206 20.0253 17.7937 22.8983 17.7937 26.4297C17.7936 29.9612 14.9206 32.8342 11.3892 32.8342Z" fill="#FFB700"/>
</g>
<defs>
<clipPath id="clip0_707_10856">
<rect width="36" height="36" fill="white" transform="translate(0.625)"/>
</clipPath>
</defs>
</svg>
