<svg width="37" height="36" viewBox="0 0 37 36" fill="none" xmlns="http://www.w3.org/2000/svg">
<g clip-path="url(#clip0_707_10895)">
<path d="M35.0796 21.4508V20.5186C35.0796 18.8257 33.7072 17.4534 32.0143 17.4534H27.3104L23.6223 10.8674C23.3255 10.3375 22.7638 10.0083 22.1564 10.0083H13.4862C13.1274 10.8608 12.4594 11.5241 11.626 11.8801H14.4589V13.042C15.1502 12.8311 15.9122 13.0945 16.3158 13.7268L16.452 13.9403V11.8802H22.0441L25.1651 17.4534H17.4095C17.297 17.5995 17.1597 17.7298 16.9955 17.8346L16.2511 18.3097C16.3894 18.5345 16.8373 19.2849 16.8373 19.5774C16.8373 19.9234 16.5568 20.2039 16.2108 20.2039C15.8648 20.2039 15.5843 19.9234 15.5843 19.5774C15.5843 19.3034 15.9781 18.6284 16.1194 18.3937C16.0936 18.4102 14.9985 19.109 14.9477 19.1415L14.9328 19.1173C14.3263 19.3933 13.6615 19.4313 13.054 19.2577L12.9297 19.3371C12.8997 19.5976 12.823 19.8535 12.7 20.0953C12.5715 20.3481 12.3995 20.5679 12.1968 20.7497C12.4282 20.7131 12.6653 20.6936 12.9068 20.6936C15.4061 20.6936 17.4396 22.727 17.4396 25.2264H24.9164C24.9164 22.7271 26.9498 20.6936 29.4492 20.6936C31.9486 20.6936 33.9819 22.727 33.9819 25.2264H34.4318C35.505 25.2264 36.375 24.3564 36.375 23.2832C36.375 22.437 35.8343 21.7175 35.0796 21.4508ZM24.6637 20.4615C24.6321 20.6154 24.4929 20.7233 24.336 20.7154C24.0192 20.6995 23.7219 20.6794 23.5018 20.6542C22.9219 20.9625 22.315 21.2581 21.5855 21.5732L21.5756 21.5774C21.4271 21.6415 21.2622 21.6262 21.1315 21.5523C20.4004 21.1333 19.9715 20.8494 19.7026 20.6731C19.3067 20.8187 18.4862 21.0434 17.9284 21.191C17.8769 21.2047 17.8231 21.1795 17.8005 21.1313C17.7778 21.0832 17.793 21.0257 17.8363 20.9948C18.342 20.6347 19.1264 20.0861 19.5774 19.8211C19.6774 19.7622 19.7948 19.7592 19.8936 19.8024C20.4357 20.0442 20.9245 20.2903 21.3997 20.5432C22.2222 20.1771 22.6786 20.007 23.2962 19.7832C23.3666 19.7578 23.4396 19.7562 23.5068 19.7744C23.7242 19.833 24.0801 19.9575 24.4625 20.099C24.6098 20.1537 24.6953 20.3076 24.6637 20.4615Z" fill="#FFB700"/>
<path d="M8.07666 20.2554C8.79125 21.3276 9.16222 21.6844 8.96815 22.9868C9.36233 22.2963 9.93221 21.7191 10.6172 21.3165C9.99844 21.2921 9.79384 21.1284 8.07666 20.2554Z" fill="#FFB700"/>
<path d="M12.9069 22.2622C11.2699 22.2622 9.94287 23.5892 9.94287 25.2262C9.94287 26.8632 11.2699 28.1903 12.9069 28.1903C14.5439 28.1903 15.8709 26.8633 15.8709 25.2262C15.8708 23.5892 14.5438 22.2622 12.9069 22.2622ZM12.9069 26.4268C12.2439 26.4268 11.7063 25.8893 11.7063 25.2262C11.7063 24.5632 12.2439 24.0256 12.9069 24.0256C13.5699 24.0256 14.1075 24.5632 14.1075 25.2262C14.1075 25.8893 13.5699 26.4268 12.9069 26.4268Z" fill="#FFB700"/>
<path d="M29.4494 22.2622C27.8124 22.2622 26.4854 23.5892 26.4854 25.2262C26.4854 26.8632 27.8124 28.1903 29.4494 28.1903C31.0864 28.1903 32.4134 26.8633 32.4134 25.2262C32.4134 23.5892 31.0863 22.2622 29.4494 22.2622ZM29.4494 26.4268C28.7863 26.4268 28.2488 25.8893 28.2488 25.2262C28.2488 24.5632 28.7863 24.0256 29.4494 24.0256C30.1124 24.0256 30.65 24.5632 30.65 25.2262C30.6499 25.8893 30.1124 26.4268 29.4494 26.4268Z" fill="#FFB700"/>
<path d="M12.7174 15.5167C12.3562 15.8686 12.1927 16.3713 12.2647 16.8583C10.9038 17.7269 12.0308 17.0076 10.6732 17.8739L7.91276 16.4705L7.44483 12.4604L8.69857 15.68L9.77295 14.0526C10.2546 13.3231 10.0536 12.3413 9.32414 11.8597L6.9686 10.3046C6.23974 9.82335 5.25768 10.0232 4.77569 10.7534L0.734187 16.8751C0.362374 17.4382 0.273709 18.1422 0.493999 18.7801L2.02351 23.2064L0.892109 28.2288C0.742062 28.8951 1.16042 29.5567 1.8267 29.7068C2.49299 29.8569 3.15456 29.4385 3.30475 28.7723L4.51356 23.4062C4.56426 23.1815 4.55104 22.9471 4.47559 22.7295L3.53917 20.028L5.32096 22.7013L4.48382 28.3185C4.37273 29.0637 4.94936 29.7374 5.70831 29.7374C6.31075 29.7374 6.83838 29.2966 6.92985 28.683L7.83731 22.5944C7.88252 22.291 7.81333 21.9816 7.64318 21.7264L6.16802 19.5131L6.36813 19.2102L5.98141 19.0136C5.13927 18.5854 4.79769 17.6857 4.85753 17.1655L5.35316 12.8537L5.86989 17.2819C5.91053 17.6295 6.12126 17.9414 6.44322 18.1051L10.2238 20.0272C10.7496 20.2947 11.3877 20.0803 11.6511 19.562C11.7794 19.3097 11.8065 19.0122 11.7034 18.7237C12.2408 18.3808 11.819 18.6499 12.9484 17.9291C13.3434 18.1888 13.8436 18.2612 14.3078 18.1014C13.7465 17.189 14.1497 17.8443 12.7174 15.5167Z" fill="#FFB700"/>
<path d="M16.5031 16.207L15.3242 14.3597C15.1875 14.1454 14.9029 14.0826 14.6886 14.2193L13.6921 14.8553C14.5207 16.2018 14.4976 16.1643 15.3232 17.506L16.3628 16.8426C16.577 16.7059 16.6398 16.4213 16.5031 16.207Z" fill="#FFB700"/>
<path d="M10.2544 11.0392C11.5734 11.0392 12.6427 9.96992 12.6427 8.65093C12.6427 7.33195 11.5734 6.2627 10.2544 6.2627C8.93546 6.2627 7.86621 7.33195 7.86621 8.65093C7.86621 9.96992 8.93546 11.0392 10.2544 11.0392Z" fill="#FFB700"/>
</g>
<defs>
<clipPath id="clip0_707_10895">
<rect width="36" height="36" fill="white" transform="translate(0.375)"/>
</clipPath>
</defs>
</svg>
