<svg width="37" height="36" viewBox="0 0 37 36" fill="none" xmlns="http://www.w3.org/2000/svg">
<g clip-path="url(#clip0_707_10828)">
<path d="M24.2154 21.3934C24.2154 21.3934 23.5711 21.3458 23.0072 20.1645L22.6834 19.5086C22.3651 19.7897 21.9475 19.9608 21.4904 19.9608C20.4954 19.9608 19.6858 19.1512 19.6858 18.1562C19.6858 18.0247 19.6862 17.7328 19.9801 17.095H16.8243L21.3713 12.2211C21.775 11.7884 21.7515 11.1103 21.3187 10.7066C20.886 10.3029 20.208 10.3265 19.8043 10.7591L15.1329 15.7664L11.8954 9.98541C11.5762 9.41554 10.9722 9.06152 10.3191 9.06152H0.375V11.0743H2.0423V17.0951H0.375V17.1125C0.375 18.3024 0.375 19.2609 0.375 20.4312C3.14344 20.4321 5.39549 22.6847 5.39549 25.4534H13.1506C13.1506 22.6842 15.4035 20.4312 18.1727 20.4312C20.9418 20.4312 23.1949 22.6842 23.1949 25.4534H23.5188C24.6728 25.4534 25.6084 24.5179 25.6084 23.3638C25.6084 22.4539 25.0269 21.6804 24.2154 21.3934ZM7.31463 20.5834H5.15781C4.70176 20.5834 4.33209 20.2137 4.33209 19.7576C4.33209 19.3012 4.70331 18.9318 5.15781 18.9318H7.31463C7.76921 18.9318 8.14035 19.3012 8.14035 19.7576C8.14028 20.2137 7.77068 20.5834 7.31463 20.5834ZM4.18543 17.095V11.0742H10.1984L13.57 17.095H4.18543Z" fill="#FFB700"/>
<path d="M21.4905 16.8926C21.352 17.1247 20.9233 17.8859 20.9233 18.1558C20.9233 18.4691 21.1772 18.723 21.4905 18.723C21.7786 18.723 22.0159 18.5081 22.0523 18.23C22.0919 17.9279 21.646 17.1529 21.4905 16.8926Z" fill="#FFB700"/>
<path d="M0.375 22.2661V24.1624C1.08718 24.1633 1.66428 24.7408 1.66428 25.4533C1.66428 26.1657 1.08718 26.7432 0.375 26.7442V28.6404C2.13443 28.6395 3.56048 27.2129 3.56048 25.4533C3.56048 23.6936 2.13443 22.267 0.375 22.2661Z" fill="#FFB700"/>
<path d="M18.1728 22.2656C16.4125 22.2656 14.9856 23.6926 14.9856 25.4527C14.9856 27.213 16.4126 28.6399 18.1728 28.6399C19.933 28.6399 21.3598 27.2129 21.3598 25.4527C21.3598 23.6927 19.933 22.2656 18.1728 22.2656ZM18.1728 26.7438C17.4598 26.7438 16.8817 26.1658 16.8817 25.4528C16.8817 24.7398 17.4597 24.1618 18.1728 24.1618C18.8857 24.1618 19.4638 24.7398 19.4638 25.4528C19.4638 26.1658 18.8857 26.7438 18.1728 26.7438Z" fill="#FFB700"/>
<path d="M36.3144 27.1827L34.9396 23.301L34.9343 21.395L32.8767 23.7778C32.8823 23.797 32.8876 23.8162 32.8943 23.8351L34.329 27.8859C34.5232 28.4342 35.1249 28.7212 35.6733 28.527C36.2215 28.3328 36.5086 27.731 36.3144 27.1827Z" fill="#FFB700"/>
<path d="M31.5202 10.9975C32.5247 10.9975 33.339 10.1832 33.339 9.17866C33.339 8.17417 32.5247 7.35986 31.5202 7.35986C30.5157 7.35986 29.7014 8.17417 29.7014 9.17866C29.7014 10.1832 30.5157 10.9975 31.5202 10.9975Z" fill="#FFB700"/>
<path d="M35.7245 17.3722L34.5706 12.1871C34.425 11.5243 33.7697 11.105 33.107 11.2505L30.9669 11.7205C30.3041 11.8661 29.8849 12.5214 30.0304 13.1841L30.0324 13.1931L30.0892 13.5193L31.7929 12.1546L29.6574 15.0142L26.6236 14.9074C26.6229 14.9072 26.593 14.9069 26.5921 14.9069C26.1232 14.9069 25.7323 15.281 25.7156 15.7536C25.6989 16.2282 26.0683 16.6438 26.5618 16.6615L30.136 16.7859C30.4207 16.7963 30.7085 16.6596 30.8803 16.4201C30.8803 16.4201 33.4129 12.7466 33.4386 12.64C33.4702 12.839 32.2445 16.12 31.9601 16.8442C31.8133 17.2181 31.423 17.5684 31.0334 17.7517C31.3242 19.0756 31.3249 19.0786 31.3826 19.3413L33.3439 17.9515L29.8958 22.1138C29.7854 22.2418 29.7072 22.3945 29.6682 22.559L28.4855 27.2969C28.3513 27.8629 28.7013 28.4304 29.2672 28.5646C29.8313 28.6985 30.4002 28.3504 30.5349 27.7829L31.6581 23.2954L35.3409 18.9322C35.7054 18.5007 35.8473 17.9237 35.7245 17.3722Z" fill="#FFB700"/>
<path d="M28.1459 17.8774L26.5211 17.8209C25.392 17.781 24.5169 16.8319 24.5563 15.7127C24.5807 15.0175 24.9501 14.3993 25.523 14.0474C25.3956 14.0586 25.2682 14.092 25.1468 14.152L23.1036 15.1607C23.0157 15.2041 22.9374 15.2588 22.8675 15.3211L21.5025 15.4394C21.4124 15.4473 21.3512 15.5351 21.3755 15.6225L21.5183 16.1372C21.534 16.194 21.5828 16.2356 21.6414 16.2423L22.5369 16.3443C22.555 16.4262 22.5819 16.5073 22.6207 16.5859L24.117 19.6165C24.3767 20.1425 25.0159 20.3593 25.5421 20.0995L27.5853 19.0907C28.0424 18.8651 28.2655 18.353 28.1459 17.8774Z" fill="#FFB700"/>
</g>
<defs>
<clipPath id="clip0_707_10828">
<rect width="36" height="36" fill="white" transform="translate(0.375)"/>
</clipPath>
</defs>
</svg>
