<svg width="37" height="36" viewBox="0 0 37 36" fill="none" xmlns="http://www.w3.org/2000/svg">
<path d="M15.5765 17.6469C15.4214 17.7794 15.2964 17.9444 15.2102 18.1305C15.124 18.3166 15.0786 18.5195 15.0772 18.7251V30.17H27.2444V31.6599C27.2444 32.1865 27.4508 32.6915 27.8183 33.0638C28.1858 33.4361 28.6842 33.6453 29.204 33.6453H31.7386C32.2584 33.6453 32.7568 33.4361 33.1243 33.0638C33.4918 32.6915 33.6982 32.1865 33.6982 31.6599V22.162C33.7425 20.4563 33.2689 18.7779 32.3413 17.3538C32.2495 17.2165 32.1542 17.0816 32.0555 16.949H32.1691H33.0129C33.536 16.9401 34.0353 16.726 34.4058 16.3519C34.7764 15.9777 34.9894 15.4726 35 14.9427C35 14.3948 35 13.9482 35 13.5469C35 13.0295 34.7986 12.533 34.4394 12.1652C34.0803 11.7974 33.5924 11.588 33.0818 11.5824C32.8407 11.5824 32.5996 11.5824 32.3551 11.5824C31.5336 11.6258 30.7576 11.9779 30.1786 12.5699C29.2418 10.2146 28.0675 7.54184 27.3305 6.47062C26.0218 4.56546 24.1173 4.02811 22.7983 3.8013C20.9785 3.50685 19.1379 3.36447 17.295 3.37561C18.8212 5.54173 19.491 8.20862 19.1722 10.8504C18.8535 13.4922 17.5694 15.917 15.5731 17.6469H15.5765ZM23.1737 20.1312L26.7622 19.1787C26.9865 19.1187 27.2214 19.1113 27.4489 19.1572C27.6764 19.203 27.8906 19.3007 28.0753 19.4431C28.2599 19.5854 28.41 19.7685 28.5143 19.9784C28.6186 20.1884 28.6742 20.4196 28.677 20.6546V21.6072C28.677 22.0172 28.5163 22.4104 28.2302 22.7002C27.9441 22.9901 27.556 23.153 27.1514 23.153H23.5629C23.1933 23.1511 22.837 23.0133 22.5601 22.7652C22.2833 22.5172 22.1047 22.1758 22.0576 21.8044C22.0104 21.433 22.0979 21.0569 22.3039 20.746C22.5098 20.435 22.8201 20.2104 23.1772 20.1138L23.1737 20.1312ZM1.25001 9.55865C1.24872 8.44004 1.49275 7.33511 1.96446 6.32373C2.43616 5.31235 3.12377 4.41979 3.97756 3.71058C4.11564 3.59347 4.28996 3.52925 4.47003 3.52914C4.68531 3.53005 4.89151 3.61711 5.04373 3.77134C5.19596 3.92557 5.28188 4.13449 5.28279 4.35261V7.84192C5.28279 8.12647 5.3381 8.40824 5.44558 8.67114C5.55306 8.93403 5.71059 9.1729 5.90918 9.37412C6.31026 9.78048 6.85423 10.0088 7.42143 10.0088H10.0319C10.3127 10.0088 10.5908 9.95273 10.8503 9.84383C11.1098 9.73494 11.3456 9.57533 11.5441 9.37412C11.7427 9.1729 11.9003 8.93403 12.0077 8.67114C12.1152 8.40824 12.1705 8.12647 12.1705 7.84192V4.35261C12.1714 4.13449 12.2574 3.92557 12.4096 3.77134C12.5618 3.61711 12.768 3.53005 12.9833 3.52914C13.1634 3.52925 13.3377 3.59347 13.4758 3.71058C14.319 4.41157 15.0003 5.29132 15.4717 6.28787C15.9431 7.28443 16.1932 8.37357 16.2044 9.47863C16.2156 10.5837 15.9875 11.6778 15.5363 12.6839C15.0851 13.69 14.4217 14.5837 13.5929 15.302C13.1042 15.724 12.7114 16.2481 12.4415 16.8383C12.1716 17.4286 12.031 18.071 12.0293 18.7216V31.3877C12.0293 31.698 11.969 32.0051 11.8519 32.2917C11.7347 32.5783 11.563 32.8388 11.3465 33.0581C11.13 33.2775 10.8729 33.4515 10.5901 33.5702C10.3072 33.6889 10.004 33.75 9.69784 33.75H7.75549C7.13714 33.75 6.54411 33.5011 6.10687 33.0581C5.66963 32.6151 5.42399 32.0143 5.42399 31.3877V18.7251C5.42231 18.0745 5.2817 17.4321 5.01181 16.8418C4.74192 16.2516 4.34915 15.7275 3.86047 15.3055C3.04066 14.5962 2.38265 13.715 1.93194 12.7227C1.48123 11.7305 1.24856 10.6509 1.25001 9.55865Z" fill="#FFB700"/>
</svg>
