<svg width="37" height="32" viewBox="0 0 37 32" fill="none" xmlns="http://www.w3.org/2000/svg">
<path d="M12.4023 1.84545C12.4023 0.945455 11.6659 0.25 10.8069 0.25H7.32959C6.42959 0.25 5.73413 0.945455 5.73413 1.84545V3.97273H12.4023V1.84545Z" fill="#FFB700"/>
<path d="M31.0154 1.84545C31.0154 0.945455 30.3199 0.25 29.4199 0.25H25.9426C25.0426 0.25 24.3472 0.945455 24.3472 1.84545V3.97273H31.0154V1.84545Z" fill="#FFB700"/>
<path d="M36.375 29.4178V7.73596C36.375 6.30415 35.2295 5.15869 33.7977 5.15869H2.95227C1.52045 5.15869 0.375 6.30415 0.375 7.73596V29.4178C0.375 30.8496 1.52045 31.9951 2.95227 31.9951H33.7568C35.1886 31.9951 36.375 30.8496 36.375 29.4178ZM10.6841 12.3996H10.2341V12.8496C10.2341 13.5041 9.70227 14.0769 9.00682 14.0769C8.31136 14.0769 7.77955 13.5451 7.77955 12.8496V12.3996H7.32955C6.675 12.3996 6.10227 11.8678 6.10227 11.1723C6.10227 10.5178 6.63409 9.94506 7.32955 9.94506H7.77955V9.49505C7.77955 8.84051 8.31136 8.26778 9.00682 8.26778C9.70227 8.26778 10.2341 8.7996 10.2341 9.49505V9.94506H10.6841C11.3386 9.94506 11.9114 10.4769 11.9114 11.1723C11.9114 11.8269 11.3795 12.3996 10.6841 12.3996ZM29.3386 12.3996H26.025C25.3705 12.3996 24.7977 11.8678 24.7977 11.1723C24.7977 10.5178 25.3295 9.94506 26.025 9.94506H29.3386C29.9932 9.94506 30.5659 10.4769 30.5659 11.1723C30.5659 11.8269 30.0341 12.3996 29.3386 12.3996Z" fill="#FFB700"/>
</svg>
