<svg width="37" height="36" viewBox="0 0 37 36" fill="none" xmlns="http://www.w3.org/2000/svg">
<path d="M22.0388 1.24137V0.620719C22.0388 0.278086 21.7607 0 21.4181 0H12.7285C12.3859 0 12.1078 0.278086 12.1078 0.620719V1.24144H3.41812C2.7323 1.24144 2.17676 1.79698 2.17676 2.4828V34.7586C2.17676 35.4445 2.7323 36 3.41812 36H30.7285C31.4143 36 31.9699 35.4445 31.9699 34.7586V2.48273C31.9699 1.79691 31.4143 1.24137 30.7285 1.24137H22.0388Z" fill="#FFB700"/>
<path d="M21.418 4.96554H12.7284C12.3858 4.96554 12.1077 4.68745 12.1077 4.34482V0.620719C12.1077 0.278086 12.3858 0 12.7284 0H21.418C21.7607 0 22.0387 0.278086 22.0387 0.620719V4.34489C22.0387 4.68745 21.7607 4.96554 21.418 4.96554Z" fill="#996E00"/>
<path d="M22.0387 3.72419V4.34491C22.0387 4.68754 21.7606 4.96563 21.418 4.96563H12.7284C12.3858 4.96563 12.1077 4.68754 12.1077 4.34491V3.72419H5.28014C4.93751 3.72419 4.65942 4.00228 4.65942 4.34491V32.8966C4.65942 33.2393 4.93751 33.5174 5.28014 33.5174H28.8663C29.209 33.5174 29.487 33.2393 29.487 32.8966V4.34484C29.487 4.00221 29.209 3.72412 28.8663 3.72412L22.0387 3.72419Z" fill="#ECE8D8"/>
<path d="M11.4522 12.4137H22.6947L20.7209 9.64912C20.5688 9.43685 20.3224 9.31021 20.0611 9.31021H14.0857C13.8244 9.31021 13.578 9.43685 13.4265 9.64912L11.4522 12.4137ZM23.9013 13.655H10.2462C10.0134 13.655 9.80051 13.5253 9.69434 13.3186C9.5876 13.1119 9.6056 12.863 9.74089 12.6737L12.4167 8.92786C12.8009 8.39032 13.4247 8.06885 14.0857 8.06885H20.0611C20.7227 8.06885 21.3459 8.39039 21.7307 8.92786L24.4059 12.6737C24.5412 12.863 24.5592 13.1119 24.4524 13.3186C24.3463 13.5253 24.1341 13.655 23.9013 13.655Z" fill="#C9B693"/>
<path d="M12.108 16.1378C11.4233 16.1378 10.8666 16.6945 10.8666 17.3791C10.8666 18.0638 11.4233 18.6205 12.108 18.6205C12.7926 18.6205 13.3493 18.0638 13.3493 17.3791C13.3493 16.6945 12.7926 16.1378 12.108 16.1378ZM12.108 19.862C10.7387 19.862 9.62524 18.7484 9.62524 17.3792C9.62524 16.01 10.7388 14.8965 12.108 14.8965C13.4772 14.8965 14.5907 16.01 14.5907 17.3792C14.5907 18.7484 13.4772 19.862 12.108 19.862Z" fill="#C9B693"/>
<path d="M22.0389 16.1378C21.3543 16.1378 20.7975 16.6945 20.7975 17.3791C20.7975 18.0638 21.3543 18.6205 22.0389 18.6205C22.7235 18.6205 23.2803 18.0638 23.2803 17.3791C23.2803 16.6945 22.7235 16.1378 22.0389 16.1378ZM22.0389 19.862C20.6696 19.862 19.5562 18.7484 19.5562 17.3792C19.5562 16.01 20.6697 14.8965 22.0389 14.8965C23.4081 14.8965 24.5216 16.01 24.5216 17.3792C24.5216 18.7484 23.4082 19.862 22.0389 19.862Z" fill="#C9B693"/>
<path d="M24.4429 16.7584H25.4142C25.6067 16.7584 25.7631 16.6019 25.7631 16.4096V14.0038C25.7631 13.8113 25.6066 13.6549 25.4142 13.6549H8.73196C8.54015 13.6549 8.38377 13.8114 8.38377 14.0038V16.4096C8.38377 16.602 8.54022 16.7584 8.73196 16.7584H9.70396C9.97951 15.6883 10.9534 14.8963 12.1079 14.8963C13.2623 14.8963 14.2362 15.6883 14.5118 16.7584H19.635C19.9105 15.6883 20.8844 14.8963 22.0389 14.8963C23.1933 14.8963 24.1672 15.6883 24.4429 16.7584ZM25.4142 17.9998H23.901C23.5577 17.9998 23.2802 17.7223 23.2802 17.379C23.2802 16.6944 22.7229 16.1377 22.0389 16.1377C21.3542 16.1377 20.7975 16.6944 20.7975 17.379C20.7975 17.7223 20.5201 17.9998 20.1768 17.9998H13.9699C13.6266 17.9998 13.3492 17.7223 13.3492 17.379C13.3492 16.6944 12.7918 16.1377 12.1078 16.1377C11.4232 16.1377 10.8664 16.6944 10.8664 17.379C10.8664 17.7223 10.589 17.9998 10.2457 17.9998H8.73189C7.85544 17.9998 7.14233 17.2866 7.14233 16.4096V14.0038C7.14233 13.1268 7.85551 12.4136 8.73189 12.4136H25.4142C26.2912 12.4136 27.0043 13.1268 27.0043 14.0038V16.4096C27.0044 17.2866 26.2912 17.9998 25.4142 17.9998Z" fill="#C9B693"/>
<path d="M17.0734 24.2068H7.76305C7.41979 24.2068 7.14233 23.9293 7.14233 23.5861C7.14233 23.2428 7.41979 22.9653 7.76305 22.9653H17.0734C17.4167 22.9653 17.6941 23.2428 17.6941 23.5861C17.6941 23.9293 17.4166 24.2068 17.0734 24.2068Z" fill="#C9B693"/>
<path d="M17.0734 27.3103H7.76305C7.41979 27.3103 7.14233 27.0328 7.14233 26.6896C7.14233 26.3463 7.41979 26.0688 7.76305 26.0688H17.0734C17.4167 26.0688 17.6941 26.3463 17.6941 26.6896C17.6941 27.0328 17.4166 27.3103 17.0734 27.3103Z" fill="#C9B693"/>
<path d="M17.0734 30.4138H7.76305C7.41979 30.4138 7.14233 30.1363 7.14233 29.7931C7.14233 29.4498 7.41979 29.1724 7.76305 29.1724H17.0734C17.4167 29.1724 17.6941 29.4498 17.6941 29.7931C17.6941 30.1363 17.4166 30.4138 17.0734 30.4138Z" fill="#C9B693"/>
<path d="M17.0734 13.6551C16.7301 13.6551 16.4526 13.3777 16.4526 13.0344V8.68957C16.4526 8.3463 16.7301 8.06885 17.0734 8.06885C17.4166 8.06885 17.6941 8.3463 17.6941 8.68957V13.0344C17.694 13.3777 17.4166 13.6551 17.0734 13.6551Z" fill="#C9B693"/>
<path d="M32.3256 26.5627C32.3256 29.9206 29.6032 32.643 26.2453 32.643C22.8874 32.643 20.165 29.9206 20.165 26.5627C20.165 23.2048 22.8874 20.4824 26.2453 20.4824C29.6032 20.4824 32.3256 23.2048 32.3256 26.5627Z" fill="#C6E3F8"/>
<path d="M28.4505 20.9014L20.584 28.768C21.0222 29.8915 21.7819 30.8516 22.7533 31.5356L31.2183 23.0706C30.5343 22.0993 29.574 21.3396 28.4505 20.9014Z" fill="#E4F3FB"/>
<path d="M20.7861 26.5627C20.7861 23.5524 23.2354 21.1032 26.2457 21.1032C29.256 21.1032 31.7052 23.5524 31.7052 26.5627C31.7052 29.573 29.256 32.0223 26.2457 32.0223C23.2354 32.0223 20.7861 29.5731 20.7861 26.5627ZM34.9012 34.939L31.1957 31.0634C32.2794 29.8723 32.9467 28.2958 32.9467 26.5628C32.9467 22.8678 29.9407 19.8618 26.2457 19.8618C22.5507 19.8618 19.5447 22.8678 19.5447 26.5628C19.5447 30.2578 22.5507 33.2638 26.2457 33.2638C27.7608 33.2638 29.1561 32.7523 30.2795 31.9008L34.0042 35.7962C34.1259 35.9241 34.2891 35.9887 34.453 35.9887C34.6075 35.9887 34.7614 35.9316 34.8819 35.8161C35.129 35.5795 35.1383 35.1866 34.9012 34.939Z" fill="#996E00"/>
</svg>
